Coordinates
version=1
nRows=17
nColumns=24
inDegrees=yes

Units are S.I. units (second, meters, Newtons, ...)
Angles are in degrees.

endheader
time	pelvis_tilt	pelvis_list	pelvis_rotation	pelvis_tx	pelvis_ty	pelvis_tz	hip_flexion_r	hip_adduction_r	hip_rotation_r	knee_angle_r	ankle_angle_r	subtalar_angle_r	mtp_angle_r	hip_flexion_l	hip_adduction_l	hip_rotation_l	knee_angle_l	ankle_angle_l	subtalar_angle_l	mtp_angle_l	lumbar_extension	lumbar_bending	lumbar_rotation
      1.22000000	      1.90778882	     -1.07868506	     -0.79270148	      0.02328708	      1.00191298	      0.00384333	     10.12424940	     -5.74003247	    -12.54500794	    -64.06548638	     10.79854450	      0.00000000	      0.00000000	      9.12310680	      0.72476711	     -9.34317414	    -16.80722071	     12.92465100	      0.00000000	      0.00000000	    -20.00975891	      0.09028943	     -3.48351122
      1.23000000	      1.81777964	     -1.34701335	     -0.84941754	      0.02201507	      1.00287901	      0.00329551	     11.30032296	     -5.63369396	    -12.77389526	    -64.18750056	     10.72624489	      0.00000000	      0.00000000	      8.57039746	      0.50169423	     -9.54240159	    -16.37013642	     13.07132469	      0.00000000	      0.00000000	    -19.98568387	      0.40431933	     -3.41399010
      1.24000000	      1.62329064	     -1.65242996	     -0.97576994	      0.02055771	      1.00361206	      0.00299179	     12.59740824	     -5.39953578	    -12.89774607	    -64.13046431	     10.58014548	      0.00000000	      0.00000000	      8.16871686	      0.20719588	     -9.87072338	    -16.01014528	     13.17965804	      0.00000000	      0.00000000	    -19.86501064	      0.73078940	     -3.25480178
      1.25000000	      1.60860713	     -1.88558326	     -0.98350429	      0.01896988	      1.00449077	      0.00248582	     13.64538843	     -5.28213524	    -13.22359083	    -63.92624667	     10.61020364	      0.00000000	      0.00000000	      7.59941040	      0.02416323	     -9.92199616	    -15.67527708	     13.32336329	      0.00000000	      0.00000000	    -19.97910146	      1.01527801	     -3.22429515
      1.26000000	      1.44715704	     -2.20540809	     -1.01671990	      0.01757268	      1.00522728	      0.00221566	     14.70642959	     -4.94577450	    -13.46385105	    -63.30078823	     10.64040547	      0.00000000	      0.00000000	      7.04038225	     -0.25330482	    -10.06508063	    -15.04679290	     13.52123245	      0.00000000	      0.00000000	    -19.89141060	      1.37303358	     -3.16800656
      1.27000000	      1.28584350	     -2.65683944	     -1.11979920	      0.01591270	      1.00588077	      0.00231827	     15.76054724	     -4.33014733	    -13.52864493	    -62.47507988	     10.68066507	      0.00000000	      0.00000000	      6.55949629	     -0.72733039	    -10.43892161	    -14.57020432	     13.58223369	      0.00000000	      0.00000000	    -19.84452146	      1.83827028	     -2.99002799
      1.28000000	      1.15108448	     -2.88382061	     -1.16488137	      0.01421943	      1.00639545	      0.00216529	     16.75241105	     -4.03228315	    -13.73125105	    -61.56434348	     10.86816485	      0.00000000	      0.00000000	      6.02439304	     -0.90996657	    -10.49588806	    -14.03046023	     13.77590861	      0.00000000	      0.00000000	    -19.82900736	      2.08675521	     -2.95618467
      1.29000000	      1.01079381	     -3.26787430	     -1.26043927	      0.01250642	      1.00686836	      0.00233906	     17.67072816	     -3.46701735	    -13.85378071	    -60.39916115	     11.17632738	      0.00000000	      0.00000000	      5.45240916	     -1.29781143	    -10.75327801	    -13.40756370	     13.83807156	      0.00000000	      0.00000000	    -19.81840914	      2.48219860	     -2.83941850
      1.30000000	      0.86091554	     -3.46555910	     -1.33401032	      0.01073040	      1.00714121	      0.00242357	     18.57332294	     -3.14241826	    -14.02242060	    -59.12903011	     11.45809572	      0.00000000	      0.00000000	      4.89115420	     -1.46040105	    -10.80290377	    -12.78035635	     14.01827945	      0.00000000	      0.00000000	    -19.79061873	      2.67623166	     -2.81674309
      1.31000000	      0.71607906	     -3.55694057	     -1.43896114	      0.00886137	      1.00731073	      0.00248038	     19.41431102	     -2.93873883	    -14.16872135	    -57.66767954	     11.70400944	      0.00000000	      0.00000000	      4.39329968	     -1.51179066	    -10.82679614	    -12.30803071	     14.15989847	      0.00000000	      0.00000000	    -19.78824204	      2.76061201	     -2.80187452
      1.32000000	      0.51879251	     -3.86656145	     -1.52524168	      0.00719265	      1.00734037	      0.00270045	     20.20624470	     -2.48402680	    -14.39574261	    -56.02954014	     12.12143782	      0.00000000	      0.00000000	      3.72357265	     -1.78630168	    -10.97655562	    -11.33563274	     14.24877691	      0.00000000	      0.00000000	    -19.69483889	      3.08948101	     -2.75398723
      1.33000000	      0.39488145	     -4.01033603	     -1.63904226	      0.00540621	      1.00738309	      0.00284565	     20.85662655	     -2.23169055	    -14.63153362	    -54.20192323	     12.36742361	      0.00000000	      0.00000000	      3.06819123	     -1.87349393	    -11.07601138	    -10.56403185	     14.30202587	      0.00000000	      0.00000000	    -19.71073003	      3.23675308	     -2.71932589
      1.34000000	      0.29545524	     -4.09131707	     -1.75708912	      0.00361233	      1.00730338	      0.00305723	     21.42978359	     -2.08112149	    -14.93096158	    -52.27565090	     12.51478232	      0.00000000	      0.00000000	      2.39505211	     -1.89744425	    -11.13801013	     -9.80842386	     14.34136307	      0.00000000	      0.00000000	    -19.75542417	      3.30068199	     -2.71035650
      1.35000000	      0.42226265	     -4.15305879	     -1.89523267	      0.00189348	      1.00757634	      0.00331870	     21.63869086	     -1.94424490	    -15.27566245	    -50.08745612	     12.53012892	      0.00000000	      0.00000000	      1.42651276	     -1.88198708	    -11.25049004	     -8.96181039	     14.25022603	      0.00000000	      0.00000000	    -20.06663605	      3.32977070	     -2.67551346
      1.36000000	      0.22917061	     -3.94570474	     -2.09841120	     -0.00013726	      1.00700017	      0.00357217	     22.30655673	     -2.11262105	    -15.55821612	    -48.07831769	     12.57748980	      0.00000000	      0.00000000	      1.09067908	     -1.61627217	    -11.20248539	     -8.69802041	     14.45881808	      0.00000000	      0.00000000	    -20.02267197	      3.06392384	     -2.64985606
      1.37000000	      0.04258507	     -4.07573721	     -2.10786202	     -0.00175177	      1.00654338	      0.00377528	     22.68719904	     -1.96148688	    -16.26221758	    -45.64170868	     12.40560896	      0.00000000	      0.00000000	      0.49523176	     -1.68821006	    -11.21570167	     -7.85943264	     14.48686831	      0.00000000	      0.00000000	    -19.94659448	      3.23045050	     -2.73519680
      1.38000000	     -0.15607796	     -3.79016783	     -2.34407344	     -0.00367565	      1.00574305	      0.00418081	     23.26040927	     -2.17187415	    -16.61763238	    -43.45699135	     12.41856414	      0.00000000	      0.00000000	      0.19795446	     -1.34571619	    -11.19012867	     -7.66220798	     14.73127312	      0.00000000	      0.00000000	    -19.88544181	      2.87028600	     -2.69257120
